<svg width="343" height="60" viewBox="0 0 343 60" fill="none" xmlns="http://www.w3.org/2000/svg">
<path d="M26.128 48.16H11.728V10.624H41.392V22.864H26.128V24.544H41.392V36.64H26.128V48.16ZM79.3046 25.072C79.3046 29.68 77.6246 32.56 75.2726 34.816L80.4086 48.112H63.8966L60.7766 39.04H60.7286V48.16H45.3686V10.624H60.1046C73.8326 10.624 79.2566 15.472 79.3046 25.072ZM57.6086 23.056L56.7446 24.256C59.4326 25.984 65.5286 26.896 69.1286 26.896V25.552C65.5286 25.552 59.9606 24.496 57.6086 23.056ZM112.33 48.16H82.6655V10.624H112.33V21.904H97.0655V23.584H112.33V35.2H97.0655V36.88H112.33V48.16ZM130.418 10.624L133.01 21.136L131.138 28.336L132.434 28.672L137.33 10.624H152.018L140.498 48.112H126.578L114.578 10.624H130.418ZM170.243 10.624V48.16H154.259V10.624H170.243ZM203.876 48.16H174.212V10.624H203.876V21.904H188.612V23.584H203.876V35.2H188.612V36.88H203.876V48.16ZM211.885 48.112L206.125 10.624H221.005L222.541 23.248L224.845 10.624H233.485L235.789 23.248L237.325 10.624H252.205L246.445 48.112H231.565L229.165 37.12L226.765 48.112H211.885Z" fill="#2A3CE5"/>
<line x1="301.5" y1="10" x2="301.5" y2="23" stroke="#2A3CE5" stroke-width="3"/>
<line y1="-1.5" x2="13" y2="-1.5" transform="matrix(4.74227e-09 1 1 -4.74227e-09 277 10)" stroke="#2A3CE5" stroke-width="3"/>
<line x1="310.892" y1="12.7313" x2="306.744" y2="24.2279" stroke="#2A3CE5" stroke-width="3"/>
<line y1="-1.5" x2="12.2222" y2="-1.5" transform="matrix(0.33943 0.940631 0.940631 -0.33943 265.334 12.2222)" stroke="#2A3CE5" stroke-width="3"/>
<path d="M286 32.5C286 37.1481 284.653 41.3144 282.525 44.2931C280.396 47.2738 277.545 49 274.5 49C271.455 49 268.604 47.2738 266.475 44.2931C264.347 41.3144 263 37.1481 263 32.5C263 27.8519 264.347 23.6856 266.475 20.7069C268.604 17.7262 271.455 16 274.5 16C277.545 16 280.396 17.7262 282.525 20.7069C284.653 23.6856 286 27.8519 286 32.5Z" fill="white" stroke="#2A3CE5" stroke-width="2"/>
<path d="M281.5 37.5C281.5 42.5872 278.262 46.5 274.5 46.5C270.738 46.5 267.5 42.5872 267.5 37.5C267.5 32.4128 270.738 28.5 274.5 28.5C278.262 28.5 281.5 32.4128 281.5 37.5Z" fill="#2A3CE5" stroke="#2A3CE5"/>
<path d="M311 32.5C311 37.1481 309.653 41.3144 307.525 44.2931C305.396 47.2738 302.545 49 299.5 49C296.455 49 293.604 47.2738 291.475 44.2931C289.347 41.3144 288 37.1481 288 32.5C288 27.8519 289.347 23.6856 291.475 20.7069C293.604 17.7262 296.455 16 299.5 16C302.545 16 305.396 17.7262 307.525 20.7069C309.653 23.6856 311 27.8519 311 32.5Z" fill="white" stroke="#2A3CE5" stroke-width="2"/>
<path d="M306.5 37.5C306.5 42.5872 303.262 46.5 299.5 46.5C295.738 46.5 292.5 42.5872 292.5 37.5C292.5 32.4128 295.738 28.5 299.5 28.5C303.262 28.5 306.5 32.4128 306.5 37.5Z" fill="#2A3CE5" stroke="#2A3CE5"/>
</svg>
