<svg width="343" height="80" viewBox="0 0 343 80" fill="none" xmlns="http://www.w3.org/2000/svg">
<path d="M26.128 68.16H11.728V30.624H41.392V42.864H26.128V44.544H41.392V56.64H26.128V68.16ZM79.3046 45.072C79.3046 49.68 77.6246 52.56 75.2726 54.816L80.4086 68.112H63.8966L60.7766 59.04H60.7286V68.16H45.3686V30.624H60.1046C73.8326 30.624 79.2566 35.472 79.3046 45.072ZM57.6086 43.056L56.7446 44.256C59.4326 45.984 65.5286 46.896 69.1286 46.896V45.552C65.5286 45.552 59.9606 44.496 57.6086 43.056ZM112.33 68.16H82.6655V30.624H112.33V41.904H97.0655V43.584H112.33V55.2H97.0655V56.88H112.33V68.16ZM130.418 30.624L133.01 41.136L131.138 48.336L132.434 48.672L137.33 30.624H152.018L140.498 68.112H126.578L114.578 30.624H130.418ZM170.243 30.624V68.16H154.259V30.624H170.243ZM203.876 68.16H174.212V30.624H203.876V41.904H188.612V43.584H203.876V55.2H188.612V56.88H203.876V68.16ZM211.885 68.112L206.125 30.624H221.005L222.541 43.248L224.845 30.624H233.485L235.789 43.248L237.325 30.624H252.205L246.445 68.112H231.565L229.165 57.12L226.765 68.112H211.885Z" fill="#2A3CE5"/>
<path d="M11.1914 17V2.85938H16.7383C19.9512 2.85938 21.7969 4.66602 21.7969 7.46875C21.7969 9.40234 20.9082 10.8086 19.2969 11.502L22.3047 17H19.0625L16.3574 11.9805H14.1211V17H11.1914ZM14.1211 9.59766H16.1914C17.9297 9.59766 18.7793 8.88477 18.7695 7.46875C18.7793 6.04297 17.9297 5.27148 16.1914 5.26172H14.1211V9.59766ZM28.8984 17.2148C25.6465 17.2051 23.6543 15.1055 23.6641 11.7461C23.6543 8.47461 25.6758 6.25781 28.7812 6.25781C31.5645 6.25781 33.7617 8.01562 33.7617 11.6289V12.4492H26.5156C26.5156 14.0508 27.4629 15.0371 28.957 15.0469C29.9434 15.0371 30.6465 14.6074 30.9297 13.9727H33.6836C33.2734 15.9355 31.5156 17.2051 28.8984 17.2148ZM26.5156 10.6328H31.0273C31.0176 9.34375 30.1289 8.41602 28.8398 8.42578C27.5117 8.41602 26.5742 9.41211 26.5156 10.6328ZM45.6289 6.39453L41.8984 17H38.6562L34.9453 6.39453H37.9922L40.2188 14.0117H40.3359L42.5625 6.39453H45.6289ZM47.5352 17V6.39453H50.4258V17H47.5352ZM47.3984 3.54297C47.3984 2.72266 48.1113 2.06836 48.9805 2.05859C49.8398 2.06836 50.5527 2.72266 50.543 3.54297C50.5527 4.34375 49.8398 5.00781 48.9805 5.00781C48.1113 5.00781 47.3984 4.34375 47.3984 3.54297ZM57.9766 17.2148C54.7246 17.2051 52.7324 15.1055 52.7422 11.7461C52.7324 8.47461 54.7539 6.25781 57.8594 6.25781C60.6426 6.25781 62.8398 8.01562 62.8398 11.6289V12.4492H55.5938C55.5938 14.0508 56.541 15.0371 58.0352 15.0469C59.0215 15.0371 59.7246 14.6074 60.0078 13.9727H62.7617C62.3516 15.9355 60.5938 17.2051 57.9766 17.2148ZM55.5938 10.6328H60.1055C60.0957 9.34375 59.207 8.41602 57.918 8.42578C56.5898 8.41602 55.6523 9.41211 55.5938 10.6328ZM67.168 17L64.2773 6.39453H67.207L68.8672 13.5625H68.9648L70.7031 6.39453H73.5742L75.332 13.5234H75.4297L77.0703 6.39453H80L77.0898 17H74.043L72.207 10.2617H72.0703L70.2344 17H67.168ZM88.5469 10.0273V12.332H82.1016V10.0273H88.5469ZM97.0938 6.39453V8.5625H94.9844V17H92.0938V8.5625H90.5898V6.39453H92.0938V5.59375C92.0938 3.35742 93.4414 2.19531 95.5703 2.19531C96.2246 2.19531 96.7812 2.25391 97.2891 2.37109V4.55859C96.8691 4.51953 96.5664 4.50977 96.4102 4.5C95.4824 4.50977 94.9844 4.86133 94.9844 5.75V6.39453H97.0938ZM99.293 17V6.39453H102.184V17H99.293ZM99.1562 3.54297C99.1562 2.72266 99.8691 2.06836 100.738 2.05859C101.598 2.06836 102.311 2.72266 102.301 3.54297C102.311 4.34375 101.598 5.00781 100.738 5.00781C99.8691 5.00781 99.1562 4.34375 99.1562 3.54297ZM104.93 17V6.39453H107.723V8.23047H107.84C108.221 6.93164 109.207 6.23828 110.398 6.23828C110.691 6.23828 111.062 6.27734 111.316 6.33594V8.91406C111.043 8.82617 110.486 8.75781 110.086 8.75781C108.777 8.75781 107.811 9.66602 107.82 10.9648V17H104.93ZM119.277 9.53906C119.15 8.79688 118.506 8.31836 117.539 8.30859C116.602 8.31836 115.889 8.75781 115.898 9.40234C115.889 9.88086 116.26 10.252 117.266 10.457L119.16 10.8477C121.221 11.2773 122.217 12.1953 122.227 13.7188C122.217 15.8086 120.342 17.2051 117.52 17.2148C114.658 17.2051 112.979 15.9258 112.734 13.8555H115.645C115.781 14.6855 116.455 15.1152 117.52 15.125C118.574 15.1152 119.277 14.6953 119.277 14.0117C119.277 13.4648 118.828 13.123 117.832 12.918L116.074 12.5664C114.053 12.166 113.018 11.1309 113.027 9.55859C113.018 7.52734 114.766 6.25781 117.5 6.25781C120.176 6.25781 121.836 7.52734 121.992 9.53906H119.277ZM130.09 6.39453V8.5625H128.098V13.7383C128.088 14.5879 128.508 14.793 129.094 14.8125C129.387 14.8125 129.895 14.7832 130.246 14.7539V17.0391C129.934 17.0879 129.416 17.1465 128.703 17.1367C126.613 17.1465 125.188 16.209 125.207 14.1484V8.5625H123.742V6.39453H125.207V3.85547H128.098V6.39453H130.09ZM145.25 6.90234C145.133 5.7793 144.244 5.125 142.809 5.125C141.324 5.125 140.494 5.80859 140.484 6.74609C140.475 7.77148 141.529 8.23047 142.75 8.50391L144.02 8.81641C146.441 9.37305 148.248 10.6035 148.258 12.957C148.248 15.5449 146.236 17.2051 142.789 17.1953C139.371 17.2051 137.193 15.623 137.105 12.5859H139.957C140.055 14.0117 141.188 14.7344 142.75 14.7344C144.293 14.7344 145.289 14.0117 145.289 12.957C145.289 11.9902 144.41 11.541 142.867 11.1602L141.324 10.7891C138.941 10.2031 137.477 9.01172 137.477 6.94141C137.467 4.37305 139.732 2.66406 142.828 2.66406C145.963 2.66406 148.023 4.40234 148.062 6.90234H145.25ZM153.504 10.8672V17H150.613V2.85938H153.426V8.25H153.543C154.031 7.00977 155.096 6.25781 156.707 6.25781C158.924 6.25781 160.379 7.75195 160.379 10.2422V17H157.488V10.75C157.488 9.43164 156.785 8.66016 155.574 8.66016C154.354 8.66016 153.504 9.4707 153.504 10.8672ZM167.871 17.2148C164.668 17.2051 162.666 15.0078 162.676 11.7266C162.666 8.45508 164.668 6.25781 167.871 6.25781C171.084 6.25781 173.076 8.45508 173.086 11.7266C173.076 15.0078 171.084 17.2051 167.871 17.2148ZM165.605 11.7266C165.605 13.582 166.377 14.959 167.891 14.9688C169.365 14.959 170.146 13.582 170.137 11.7266C170.146 9.86133 169.365 8.46484 167.891 8.46484C166.377 8.46484 165.605 9.86133 165.605 11.7266ZM175.402 20.9844V6.39453H178.254V8.17188H178.371C178.771 7.3125 179.611 6.25781 181.398 6.25781C183.742 6.25781 185.705 8.07422 185.695 11.707C185.705 15.252 183.82 17.1758 181.398 17.1758C179.67 17.1758 178.781 16.1797 178.371 15.3008H178.293V20.9844H175.402ZM178.234 11.6875C178.225 13.6016 179.045 14.8613 180.48 14.8711C181.955 14.8613 182.756 13.5625 182.746 11.6875C182.756 9.8418 181.975 8.5625 180.48 8.5625C179.035 8.5625 178.225 9.7832 178.234 11.6875ZM188.07 20.9844V6.39453H190.922V8.17188H191.039C191.439 7.3125 192.279 6.25781 194.066 6.25781C196.41 6.25781 198.373 8.07422 198.363 11.707C198.373 15.252 196.488 17.1758 194.066 17.1758C192.338 17.1758 191.449 16.1797 191.039 15.3008H190.961V20.9844H188.07ZM190.902 11.6875C190.893 13.6016 191.713 14.8613 193.148 14.8711C194.623 14.8613 195.424 13.5625 195.414 11.6875C195.424 9.8418 194.643 8.5625 193.148 8.5625C191.703 8.5625 190.893 9.7832 190.902 11.6875ZM200.738 17V6.39453H203.629V17H200.738ZM200.602 3.54297C200.602 2.72266 201.314 2.06836 202.184 2.05859C203.043 2.06836 203.756 2.72266 203.746 3.54297C203.756 4.34375 203.043 5.00781 202.184 5.00781C201.314 5.00781 200.602 4.34375 200.602 3.54297ZM209.266 10.8672V17H206.375V6.39453H209.129V8.25H209.246C209.725 7.0293 210.857 6.25781 212.43 6.25781C214.646 6.25781 216.092 7.77148 216.082 10.2422V17H213.211V10.75C213.201 9.44141 212.498 8.66016 211.297 8.66016C210.096 8.66016 209.266 9.4707 209.266 10.8672ZM223.594 21.1992C220.664 21.1992 218.857 19.8809 218.691 17.8789H221.543C221.699 18.7285 222.5 19.1094 223.652 19.1094C224.99 19.1094 225.889 18.5332 225.898 17.0586V15.125H225.762C225.381 15.9844 224.443 16.8535 222.734 16.8438C220.342 16.8535 218.418 15.1641 218.418 11.6289C218.418 8.04492 220.391 6.25781 222.734 6.25781C224.512 6.25781 225.371 7.3125 225.762 8.17188H225.879V6.39453H228.75V17.1172C228.74 19.8223 226.611 21.1992 223.594 21.1992ZM221.387 11.668C221.377 13.5039 222.168 14.666 223.633 14.6758C225.078 14.666 225.898 13.5527 225.898 11.668C225.898 9.7832 225.088 8.5625 223.633 8.5625C222.158 8.5625 221.377 9.8418 221.387 11.668Z" fill="black"/>
<line x1="301.5" y1="30" x2="301.5" y2="43" stroke="#2A3CE5" stroke-width="3"/>
<line y1="-1.5" x2="13" y2="-1.5" transform="matrix(4.74227e-09 1 1 -4.74227e-09 277 30)" stroke="#2A3CE5" stroke-width="3"/>
<line x1="310.892" y1="32.7313" x2="306.744" y2="44.2279" stroke="#2A3CE5" stroke-width="3"/>
<line y1="-1.5" x2="12.2222" y2="-1.5" transform="matrix(0.33943 0.940631 0.940631 -0.33943 265.334 32.2222)" stroke="#2A3CE5" stroke-width="3"/>
<path d="M286 52.5C286 57.1481 284.653 61.3144 282.525 64.2931C280.396 67.2738 277.545 69 274.5 69C271.455 69 268.604 67.2738 266.475 64.2931C264.347 61.3144 263 57.1481 263 52.5C263 47.8519 264.347 43.6856 266.475 40.7069C268.604 37.7262 271.455 36 274.5 36C277.545 36 280.396 37.7262 282.525 40.7069C284.653 43.6856 286 47.8519 286 52.5Z" fill="white" stroke="#2A3CE5" stroke-width="2"/>
<path d="M281.5 57.5C281.5 62.5872 278.262 66.5 274.5 66.5C270.738 66.5 267.5 62.5872 267.5 57.5C267.5 52.4128 270.738 48.5 274.5 48.5C278.262 48.5 281.5 52.4128 281.5 57.5Z" fill="#2A3CE5" stroke="#2A3CE5"/>
<path d="M311 52.5C311 57.1481 309.653 61.3144 307.525 64.2931C305.396 67.2738 302.545 69 299.5 69C296.455 69 293.604 67.2738 291.475 64.2931C289.347 61.3144 288 57.1481 288 52.5C288 47.8519 289.347 43.6856 291.475 40.7069C293.604 37.7262 296.455 36 299.5 36C302.545 36 305.396 37.7262 307.525 40.7069C309.653 43.6856 311 47.8519 311 52.5Z" fill="white" stroke="#2A3CE5" stroke-width="2"/>
<path d="M306.5 57.5C306.5 62.5872 303.262 66.5 299.5 66.5C295.738 66.5 292.5 62.5872 292.5 57.5C292.5 52.4128 295.738 48.5 299.5 48.5C303.262 48.5 306.5 52.4128 306.5 57.5Z" fill="#2A3CE5" stroke="#2A3CE5"/>
</svg>
